ply
format ascii 1.0
element vertex 108
property float x
property float y
property float z
property uchar red
property uchar green
property uchar blue
element face 196
property list uchar int vertex_indices
end_header
-16.328648 0.5663624 -0.16296673 255 48 0
-16.326767 0.5644903 -0.16296673 255 48 0
-16.326767 0.5663624 -0.16482449 255 48 0
-16.324888 0.5663624 -0.16296673 255 48 0
-16.326767 0.6528101 -0.16296673 255 48 0
-16.326767 0.5663624 -0.1611085 255 48 0
-14.214982 -1.73347 0.027340889 255 48 0
-14.210348 -1.5418167 0.027340889 255 48 0
-14.037914 -2.6917324 0.027340889 255 48 0
-14.209603 -1.7388268 0.027340889 255 48 0
-14.023675 -1.73347 -0.35327387 255 48 0
-14.209603 -1.73347 0.022020817 255 48 0
-14.204224 -1.73347 0.027340889 255 48 0
-14.209603 -1.73347 0.032660007 255 48 0
-14.209603 -1.5418167 0.026604176 255 48 0
-14.209603 -1.5048304 0.027340889 255 48 0
-14.209603 -1.5418167 0.028077602 255 48 0
-14.02326 -1.3501644 0.027340889 255 48 0
-14.017134 -2.7124252 0.027340889 255 48 0
-13.831991 -2.6917324 -0.35327387 255 48 0
-13.84061 -2.6917324 -0.16296673 255 48 0
-14.017134 -2.6917324 0.006793022 255 48 0
-14.017134 -2.6710396 0.027340889 255 48 0
-14.017134 -2.6917324 0.04788828 255 48 0
-13.827758 -2.50008 -0.5435815 255 48 0
-13.839085 -2.50008 -0.35327387 255 48 0
-13.8521595 -2.50008 -0.16296673 255 48 0
-14.017134 -1.7399836 -0.35327387 255 48 0
-14.017134 -1.73347 -0.35974264 255 48 0
-14.017134 -1.7269554 -0.35327387 255 48 0
-14.017134 -1.73347 -0.34680557 255 48 0
-14.017134 -1.5504532 0.027340889 255 48 0
-13.825604 -1.5418167 -0.35327387 255 48 0
-14.017134 -1.5418167 0.018764973 255 48 0
-14.008461 -1.5418167 0.027340889 255 48 0
-14.017134 -1.5418167 0.03591585 255 48 0
-14.017134 -1.3501644 0.027239323 255 48 0
-14.017134 -1.346756 0.027340889 255 48 0
-14.017134 -1.3501644 0.027442455 255 48 0
-13.824664 -2.699028 -0.35327387 255 48 0
-13.824664 -2.7076101 -0.16296673 255 48 0
-13.824664 -2.7168589 0.027340889 255 48 0
-13.644488 -2.8833857 0.21764803 255 48 0
-13.824664 -2.6239252 -0.5435815 255 48 0
-13.824664 -2.6917324 -0.5085001 255 48 0
-13.799431 -2.6917324 0.027340889 255 48 0
-13.824664 -2.666607 0.027340889 255 48 0
-13.824664 -2.6917324 0.052291393 255 48 0
-13.824664 -2.50008 -0.605906 255 48 0
-13.82157 -2.50008 -0.5435815 255 48 0
-13.824664 -2.4969997 -0.5435815 255 48 0
-13.810243 -2.50008 -0.35327387 255 48 0
-13.824664 -2.4857206 -0.35327387 255 48 0
-13.797169 -2.50008 -0.16296673 255 48 0
-13.824664 -2.472701 -0.16296673 255 48 0
-13.824664 -2.50008 -0.13577986 255 48 0
-13.824664 -1.7420931 -0.35327387 255 48 0
-13.824664 -1.73347 -0.3618369 255 48 0
-13.824664 -1.73347 -0.34471083 255 48 0
-13.824664 -1.5418167 -0.35420418 255 48 0
-13.720607 -1.5418167 -0.35327387 255 48 0
-13.824664 -1.5408812 -0.35327387 255 48 0
-13.824664 -1.5418167 -0.35234404 255 48 0
-13.824664 -1.3532705 0.027340889 255 48 0
-13.824664 -1.3501644 0.02425623 255 48 0
-13.821545 -1.3501644 0.027340889 255 48 0
-13.824664 -1.2807455 0.027340889 255 48 0
-13.824664 -1.3501644 0.030425549 255 48 0
-13.6321945 -2.895627 0.21764803 255 48 0
-13.6321945 -2.696309 -0.35327387 255 48 0
-13.6321945 -2.705614 -0.16296673 255 48 0
-13.4408655 -2.8833857 0.027340889 255 48 0
-13.6321945 -2.8833857 0.2054925 255 48 0
-13.6321945 -2.8711443 0.21764803 255 48 0
-13.6321945 -2.8833857 0.22980356 255 48 0
-13.6321945 -2.6917324 -0.45099163 255 48 0
-13.627599 -2.6917324 -0.35327387 255 48 0
-13.6321945 -2.6871557 -0.35327387 255 48 0
-13.6321945 -2.6778517 -0.16296673 255 48 0
-13.6321945 -2.6917324 -0.14918232 255 48 0
-13.6321945 -1.7396755 -0.35327387 255 48 0
-13.6321945 -1.73347 -0.35943556 255 48 0
-13.6321945 -1.5630674 -0.35327387 255 48 0
-13.6321945 -1.73347 -0.34711218 255 48 0
-13.439725 -2.9079876 0.027340889 255 48 0
-13.439725 -2.951673 0.21764803 255 48 0
-13.439725 -2.8191805 -0.16296673 255 48 0
-13.439725 -2.8833857 -0.023020267 255 48 0
-13.419785 -2.8833857 0.027340889 255 48 0
-13.439725 -2.8822508 0.027340889 255 48 0
-13.387999 -2.8833857 0.21764803 255 48 0
-13.439725 -2.8800058 0.21764803 255 48 0
-13.439725 -2.8833857 0.22100496 255 48 0
-13.439725 -2.6917324 -0.16902399 255 48 0
-13.433599 -2.6917324 -0.16296673 255 48 0
-13.439725 -2.6856337 -0.16296673 255 48 0
-13.439725 -2.6917324 -0.15690947 255 48 0
-13.439725 -1.7338943 -0.35327387 255 48 0
-13.439725 -1.73347 -0.35369587 255 48 0
-13.429111 -1.73347 -0.35327387 255 48 0
-13.439725 -1.7190161 -0.35327387 255 48 0
-13.439725 -1.73347 -0.35285187 255 48 0
-13.260825 -1.73347 0.027340889 255 48 0
-13.247255 -1.7469816 0.027340889 255 48 0
-13.247255 -1.73347 0.013923645 255 48 0
-13.084901 -1.73347 0.027340889 255 48 0
-13.247255 -1.7199574 0.027340889 255 48 0
-13.247255 -1.73347 0.040758133 255 48 0
3 2 1 0
3 1 5 0
3 2 0 4
3 0 5 4
3 1 2 3
3 1 3 5
3 3 2 4
3 3 4 5
3 11 9 6
3 9 13 6
3 14 7 15
3 7 16 15
3 21 18 8
3 18 23 8
3 21 8 22
3 8 23 22
3 28 27 10
3 27 30 10
3 9 11 12
3 9 12 13
3 28 10 29
3 10 30 29
3 36 17 37
3 17 38 37
3 44 39 19
3 48 43 24
3 48 24 50
3 26 55 54
3 31 33 34
3 31 34 35
3 59 32 61
3 32 62 61
3 72 68 42
3 68 74 42
3 42 74 73
3 43 48 49
3 45 46 47
3 49 48 50
3 53 54 55
3 60 59 61
3 60 61 62
3 63 64 65
3 63 65 67
3 65 64 66
3 65 66 67
3 87 84 71
3 69 75 76
3 76 75 77
3 84 87 88
3 85 90 92
3 86 93 94
3 90 91 92
3 94 93 95
3 94 95 96
3 97 98 99
3 97 99 101
3 104 103 102
3 103 107 102
3 99 98 100
3 99 100 101
3 104 102 106
3 102 107 106
3 103 104 105
3 103 105 107
3 105 104 106
3 105 106 107
3 14 11 6
3 7 14 6
3 13 16 7
3 6 13 7
3 39 40 20
3 19 39 20
3 18 41 47
3 23 18 47
3 19 20 25
3 20 26 25
3 46 22 23
3 47 46 23
3 24 25 52
3 50 24 52
3 25 26 54
3 52 25 54
3 28 57 56
3 27 28 56
3 27 56 58
3 30 27 58
3 64 36 37
3 66 64 37
3 66 37 38
3 67 66 38
3 44 75 69
3 39 44 69
3 69 70 39
3 39 70 40
3 72 42 73
3 45 47 41
3 77 53 78
3 51 53 77
3 51 49 50
3 52 51 50
3 53 51 52
3 54 53 52
3 57 81 80
3 56 57 80
3 56 80 83
3 58 56 83
3 68 85 92
3 74 68 92
3 91 73 74
3 92 91 74
3 95 78 79
3 96 95 79
3 81 98 97
3 80 81 97
3 80 97 101
3 83 80 101
3 98 81 82
3 100 98 82
3 100 82 83
3 101 100 83
3 85 84 88
3 90 85 88
3 90 88 89
3 91 90 89
3 31 12 11
3 31 11 33
3 33 11 14
3 12 31 35
3 12 35 13
3 13 35 16
3 15 17 36
3 15 36 14
3 14 36 33
3 17 15 16
3 17 16 38
3 38 16 35
3 21 20 40
3 21 40 18
3 18 40 41
3 43 44 19
3 43 19 24
3 24 19 25
3 29 32 59
3 29 59 28
3 28 59 57
3 32 29 30
3 32 30 62
3 62 30 58
3 63 34 33
3 63 33 64
3 64 33 36
3 34 63 67
3 34 67 35
3 35 67 38
3 79 45 41
3 79 41 70
3 70 41 40
3 60 82 81
3 60 81 59
3 59 81 57
3 82 60 62
3 82 62 83
3 83 62 58
3 72 71 84
3 72 84 68
3 68 84 85
3 76 93 86
3 76 86 69
3 69 86 70
3 71 72 73
3 71 73 89
3 89 73 91
3 93 76 77
3 93 77 95
3 95 77 78
3 21 26 20
3 21 46 26
3 21 22 46
3 55 26 46
3 77 75 44
3 77 44 49
3 77 49 51
3 43 49 44
3 45 55 46
3 79 55 45
3 79 53 55
3 79 78 53
3 96 89 88
3 96 88 94
3 87 86 88
3 86 94 88
3 96 79 71
3 96 71 89
3 79 70 71
3 87 71 86
3 70 86 71
